<?xml version="1.0" encoding="UTF-8" standalone="no"?>
<svg
   viewBox="0 0 235.05121 233.83484"
   version="1.1"
   id="svg6"
   width="235.05121"
   height="233.83484"
   xmlns="http://www.w3.org/2000/svg"
   xmlns:svg="http://www.w3.org/2000/svg">
  <defs
     id="defs2" />
  <path
     d="m 33.930048,65.289069 c -1.34671,0.008 -2.44108,-1.08677 -2.43348,-2.43348 -0.0276,-15.33158 -12.44584,-27.75474 -27.7775598,-27.77756 -1.33841,0 -2.42587,-1.08123 -2.43347,-2.41965 0,-1.34394 1.08953,-2.43347 2.43347,-2.43347 15.3371198,-0.0276 27.7623498,-12.454284 27.7775598,-27.7913933 -0.008,-1.3467 1.08677,-2.44120997 2.43348,-2.433469974707 C 35.276758,-0.00795427 36.371268,1.0868157 36.363518,2.4335157 c 0.0277,15.3317193 12.44598,27.7547533 27.77756,27.7775633 1.34671,-0.008 2.44122,1.08677 2.43348,2.43348 0.008,1.3467 -1.08677,2.44122 -2.43348,2.43347 -15.33476,0.0138 -27.76221,12.4428 -27.77756,27.77756 -0.007,1.34118 -1.09229,2.42587 -2.43347,2.43348 z M 208.93283,233.83484 c -1.07709,0 -1.94955,-0.87245 -1.94955,-1.94954 -0.0138,-12.26499 -9.95415,-22.20408 -22.21928,-22.21929 -1.07156,0 -1.94194,-0.86416 -1.94955,-1.93571 0,-1.07709 0.87246,-1.94955 1.94955,-1.94955 12.26831,-0.008 22.21168,-9.95111 22.21928,-22.21928 0,-1.07709 0.87246,-1.94955 1.94955,-1.94955 1.07709,0 1.94954,0.87246 1.94954,1.94955 0.008,12.26817 9.95112,22.21168 22.21928,22.21928 2.5994,0 2.5994,3.89909 0,3.89909 -12.26498,0.0138 -22.20393,9.95429 -22.21928,22.21928 -0.008,1.07156 -0.87798,1.93572 -1.94954,1.93572 z"
     fill="#50e6ff"
     id="path3"
     style="fill:#ffffff;fill-opacity:1;stroke-width:13.8266" />
  <path
     d="M 200.05617,96.592399 C 217.62365,170.12495 137.52044,228.17494 73.111058,188.60609 8.7016882,149.0371 24.276068,51.345119 97.808758,33.778339 143.38926,22.889365 189.16679,51.012039 200.05617,96.592399 Z"
     fill="url(#a)"
     id="path4"
     style="fill:#ffffff;fill-opacity:1;stroke-width:13.8266" />
  <path
     d="m 230.77879,45.461779 c -8.6969,-14.47641 -29.03577,-20.117654 -57.44936,-15.88672 -9.73486,1.37989 -19.35608,3.46839 -28.7869,6.24961 7.48142,2.5828 14.58606,6.14908 21.12699,10.60497 3.3322,-0.73281 6.67823,-1.60388 9.88599,-2.08781 5.04628,-0.78535 10.14386,-1.19738 15.2507,-1.23057 10.14385,-1.46229 20.33831,2.31056 27.08623,10.02426 5.29557,8.82135 0.82959,23.90612 -12.25033,41.47968 -18.17806,22.626061 -40.45348,41.627491 -65.66234,56.011401 -24.64391,15.38108 -51.960632,25.99062 -80.525892,31.27568 -21.62474,3.23542 -37.08284,0 -42.37841,-8.79369 -5.29557,-8.7937 -0.82959,-23.91995 12.25033,-41.41055 1.61771,-2.17077 2.01868,-3.23542 3.85761,-5.42001 -0.86416,-7.49594 -0.74386,-15.07275 0.35949,-22.5373 -5.87836,5.89219 -11.28717,12.23485 -16.17707,18.97004 -17.13110977,22.91061 -21.7768298,43.51219 -13.0937498,57.9886 9.3348598,12.48856 24.6093398,19.0671 40.0970198,17.26937 5.79209,-0.0276 11.5738,-0.4936 17.29703,-1.38265 30.49158,-5.56519 59.662302,-16.82264 85.987382,-33.18375 26.88547,-15.38606 50.62623,-35.70709 69.97622,-59.89666 17.18642,-22.965921 21.83214,-43.553671 13.14906,-58.043901 z"
     fill="#50e6ff"
     id="path6"
     style="fill:#ffffff;fill-opacity:1;stroke-width:13.8266" />
</svg>